<?xml version="1.0" encoding="UTF-8" standalone="no"?>
<!-- Created with Inkscape (http://www.inkscape.org/) -->

<svg
   width="210mm"
   height="297mm"
   viewBox="0 0 210 297"
   version="1.1"
   id="svg1"
   xml:space="preserve"
   inkscape:version="1.3 (0e150ed6c4, 2023-07-21)"
   sodipodi:docname="icone especial.svg"
   xmlns:inkscape="http://www.inkscape.org/namespaces/inkscape"
   xmlns:sodipodi="http://sodipodi.sourceforge.net/DTD/sodipodi-0.dtd"
   xmlns="http://www.w3.org/2000/svg"
   xmlns:svg="http://www.w3.org/2000/svg"><sodipodi:namedview
     id="namedview1"
     pagecolor="#505050"
     bordercolor="#eeeeee"
     borderopacity="1"
     inkscape:showpageshadow="0"
     inkscape:pageopacity="0"
     inkscape:pagecheckerboard="0"
     inkscape:deskcolor="#505050"
     inkscape:document-units="mm"
     inkscape:zoom="0.70710678"
     inkscape:cx="-132.22897"
     inkscape:cy="671.04434"
     inkscape:window-width="1920"
     inkscape:window-height="1017"
     inkscape:window-x="-8"
     inkscape:window-y="-8"
     inkscape:window-maximized="1"
     inkscape:current-layer="layer2" /><defs
     id="defs1" /><g
     inkscape:groupmode="layer"
     id="layer2"
     inkscape:label="Camada 2"><path
       d="m 90.058298,74.131179 -1.355682,0.100388 -0.686297,0.177802 -1.175167,0.316647 -1.132463,0.463735 -1.284138,0.634043 -0.934198,0.786625 -0.727894,0.55713 -0.533787,0.633794 -0.618918,0.753911 -0.310563,0.474223 -0.171366,-0.0077 -0.36908,-0.533157 -0.608931,-0.803605 -0.531845,-0.509683 -0.557639,-0.502191 -0.774755,-0.587097 -0.594513,-0.393312 -0.570114,-0.34986 -0.873466,-0.371337 -1.189032,-0.426026 -1.237556,-0.295171 -0.897592,-0.0874 -1.007126,-0.01099 -0.934199,0.06568 -0.740096,0.109129 -1.04317,0.25147 -0.740096,0.25122 -1.310205,0.742923 -1.043449,0.819587 -0.497463,0.502441 -0.594515,0.8086 -0.327482,0.644533 -0.286442,0.581353 -0.308627,0.77264 -0.154451,0.896252 -0.03439,0.9889 0.171643,1.097029 0.27452,0.749416 0.197155,0.509932 0.265923,0.525415 0.163047,0.301166 0.18024,0.285931 0.291712,0.355354 0.48027,0.563873 -12.979495,0.139095 -0.27452,0.146836 -0.351885,0.231743 -0.231538,0.216264 -0.120068,0.262703 0.01442,9.895483 0.03633,0.284183 0.230707,0.349611 0.266754,0.294924 0.327762,0.109379 0.266754,0.07641 1.528713,-0.01096 -0.03771,8.423617 2.585472,0.008 v -8.431362 l 16.103191,0.01024 -0.02136,8.459832 2.582145,-0.0155 -0.07764,-8.443594 h 10.785556 l 0.0069,16.810534 h 2.607934 l -0.01718,-16.780317 10.603379,-0.03096 0.0344,-2.302189 -6.622849,-0.01546 -0.03686,-7.285387 14.704257,-0.03299 v 7.353316 l -5.33816,0.0327 v 2.250748 l 2.72967,0.04371 0.0363,45.298829 -0.0485,0.20751 -0.0849,0.10938 -0.12145,0.011 -14.422531,-0.0428 -0.01717,2.31793 14.239531,-0.019 0.52796,-0.011 0.3943,-0.0657 0.20021,-0.10364 0.42454,-0.1748 0.29116,-0.224 0.30945,-0.18029 0.24263,-0.24598 0.20021,-0.20203 0.21822,-0.48072 0.19412,-0.39331 -0.0807,-45.861193 h 1.58279 l 0.249,-0.02318 0.24014,-0.0929 0.18856,-0.108126 0.16304,-0.169813 0.14586,-0.193282 0.086,-0.16207 0.11147,-0.201029 -0.0688,-9.294151 -0.0271,-0.736185 -0.0302,-0.136601 -0.0424,-0.169561 -0.091,-0.125604 -0.13503,-0.160822 -0.3261,-0.185294 -0.37601,-0.123611 -13.036071,0.05469 0.0061,-0.262208 h 0.133381 l 0.33968,-0.338872 0.388209,-0.480716 0.412614,-0.720946 0.413445,-0.963928 0.206024,-0.641037 0.145858,-1.120253 -0.0086,-0.733933 -0.01718,-0.486708 -0.206032,-0.819088 -0.24013,-0.7649 -0.257329,-0.66426 -0.480272,-0.710708 -0.480547,-0.60283 -0.514652,-0.602579 -0.703494,-0.509932 -0.987161,-0.585099 -0.758393,-0.365843 -0.964419,-0.316897 -1.067579,-0.273197 z m -0.07986,2.369612 0.737874,0.01548 0.771981,0.03097 0.93503,0.201027 0.806644,0.363095 0.754788,0.514926 0.600614,0.551636 0.424537,0.55738 0.373233,0.616315 0.27452,0.641285 0.137262,1.004383 0.01717,1.135736 -0.265924,0.625803 -0.231814,0.587097 -0.419546,0.639289 -0.473334,0.546141 -0.897598,0.688484 -0.645811,0.327885 -0.557639,0.247225 -1.301887,0.233241 h -8.468225 c -0.0213,-0.332713 -0.08009,-2.04669 -0.120069,-3.070084 l 0.218506,-0.892257 0.229046,-0.659265 0.31528,-0.742923 0.364084,-0.568118 0.476109,-0.720699 0.41206,-0.432517 0.394584,-0.417287 0.617533,-0.509932 0.3089,-0.231742 0.583422,-0.401803 0.600341,-0.27819 1.286911,-0.401553 0.420378,-0.0929 0.523248,-0.05394 z m -17.592528,0.03322 0.79777,0.05394 0.523527,0.05419 0.420372,0.09265 1.286638,0.401802 0.600614,0.277941 0.583422,0.401804 0.308627,0.231741 0.617807,0.509933 0.394589,0.417285 0.411776,0.432518 0.476114,0.720699 0.364084,0.568117 0.315559,0.742923 0.22904,0.659266 0.218506,0.892257 c -0.03997,1.023392 -0.09877,2.737371 -0.120063,3.070084 h -8.468229 l -1.302168,-0.233241 -0.557633,-0.247225 -0.645538,-0.327884 -0.897871,-0.688485 -0.47306,-0.546142 -0.41982,-0.639288 -0.231539,-0.587097 -0.265923,-0.625803 0.0172,-1.135735 0.137259,-1.004383 0.274519,-0.641037 0.372958,-0.616563 0.424812,-0.557381 0.600336,-0.551635 0.755066,-0.514927 0.806366,-0.363096 0.93503,-0.201026 0.77226,-0.03097 z m -17.867328,11.865295 14.75278,0.01096 -0.02415,2.414563 2.608214,0.01096 0.01218,-2.373355 h 18.679558 v 7.200484 l -18.753001,-0.01545 v -2.364115 l -2.50506,-0.01546 -0.01717,2.364116 -14.728931,0.02222 z"
       style="opacity:0.959;fill:#8a504c;stroke:#000000;stroke-width:0.203687;fill-opacity:1"
       id="path4" /><path
       d="m 67.124009,108.88525 -1.09475,0.20476 -1.046778,0.2782 -0.952222,0.43476 -0.897594,0.53541 -0.825222,0.65552 -0.582315,0.56811 -0.327482,0.46974 -0.339683,-0.0107 -0.06073,-0.20777 -0.291156,-0.41504 -0.38821,-0.3606 -0.41261,-0.29493 -0.667166,-0.5791 -0.606714,-0.3059 -0.642765,-0.31691 -1.52483,-0.4892 -0.950279,-0.1336 -13.324726,0.002 -0.291711,0.14685 -0.283116,0.25496 -0.188558,0.24722 -0.13726,0.38608 0.07931,2.63381 0.03633,0.79761 0.109252,0.75392 0.436736,1.02685 0.303358,0.56836 0.304467,0.46199 0.775309,0.88178 -0.03633,0.10937 -11.841209,0.1311 -0.291158,0.19654 -0.266755,0.2185 -0.16998,0.28418 v 0.54615 l -0.04243,7.21122 0.0122,0.12561 0.09705,0.224 0.09705,0.1421 0.197155,0.19104 0.191054,0.14208 0.382109,0.15308 2.984498,0.0599 0.01054,16.5703 0.02579,0.37858 0.111472,0.43277 0.34301,0.56387 0.343288,0.3631 0.446163,0.32438 0.540442,0.29368 0.531846,0.19329 49.718777,0.0115 0.388209,-0.12037 0.364085,-0.2185 0.242631,-0.28393 0.157506,-0.32788 0.01776,-18.19775 0.115909,-0.0597 2.620411,0.011 0.339684,-0.10937 0.303358,-0.0874 0.194102,-0.15283 0.26703,-0.4043 0.133381,-0.28419 -0.07293,-7.44046 -0.03633,-0.25123 -0.218227,-0.38256 -0.24263,-0.21852 -0.364084,-0.1748 -11.73778,-0.0382 -5.37e-4,-0.1421 0.360204,-0.38631 0.291709,-0.30892 0.39459,-0.50993 0.326098,-0.77263 0.308622,-0.75717 0.188837,-0.54089 0.102877,-0.54065 -0.0011,-3.29059 -0.06045,-0.26245 -0.121453,-0.29493 -0.133381,-0.18579 -0.254828,-0.18555 -0.412334,-0.14208 z m 11.391164,2.22052 v 1.91612 l -0.08152,0.34761 -0.137262,0.48671 -0.197154,0.43252 -0.128665,0.29368 -0.406233,0.63354 -0.537114,0.57886 -0.436739,0.33862 -0.557911,0.34961 -0.291156,0.16382 -0.527964,0.21301 -0.923381,0.25647 -0.308626,0.0774 -11.476296,-0.0332 -0.06211,-0.11363 0.0086,-0.37857 -0.01719,-0.40181 0.04271,-0.78013 0.0402,-0.32538 0.03633,-0.28969 0.109254,-0.3933 0.277569,-0.49445 0.381831,-0.64903 0.66467,-0.71446 0.772259,-0.58734 1.098077,-0.53291 1.089481,-0.29368 z m -34.632136,0.0397 11.568633,0.10039 1.08948,0.29367 1.098078,0.53291 0.771981,0.58735 0.664947,0.71445 0.381554,0.64903 0.277847,0.49444 0.109253,0.39332 0.03633,0.28967 0.03992,0.32515 0.04298,0.78038 -0.01719,0.40179 0.0086,0.37859 -0.06211,0.11337 -11.476295,0.0335 -0.308903,-0.0774 -0.923383,-0.25646 -0.527688,-0.21302 -0.291156,-0.16381 -0.55819,-0.34961 -0.436735,-0.33888 -0.536837,-0.5786 -0.406234,-0.63355 -0.128663,-0.29367 -0.197433,-0.43252 -0.137259,-0.48696 -0.08153,-0.34761 z m 26.710731,8.41464 18.592721,0.0437 -0.0032,4.84536 -18.65012,-0.0162 z m -37.354872,0.0272 18.721108,0.01 -0.06877,4.83636 -9.256293,-0.0539 v 2.41332 h 13.278973 v 16.79306 l -18.258864,0.0437 -0.206305,-0.0547 -0.07293,-0.12012 -0.08485,-0.12011 -0.04852,-16.57456 2.766268,0.0217 -0.0244,-2.37087 h -0.145578 l -6.551308,0.0217 z m 34.673731,0.005 v 4.85111 l -13.381845,0.011 0.06073,-4.85111 z m -4.025727,7.20473 0.02911,16.81054 -5.371429,0.0437 -0.01941,-16.8465 z m 2.719404,0.008 18.594112,0.0113 0.03467,16.84749 -18.62877,-0.0654 z"
       style="opacity:0.959;fill:#8a504c;stroke:#000000;stroke-width:0.101844;fill-opacity:1"
       id="path34" /><path
       d="m 38.456981,89.636919 -0.600337,0.21626 -0.49774,0.571613 -0.428971,0.710961 -0.308626,0.556131 -0.463355,0.77264 -0.600615,1.143473 -0.292544,0.308909 -0.994648,0.437016 -1.892796,0.917727 -1.382857,0.721196 -0.291157,0.415288 -0.04852,0.393316 0.04852,0.437007 0.291157,0.437016 0.582314,0.284184 1.116101,0.568121 1.091977,0.480711 1.116102,0.589848 0.436735,0.349611 1.577238,2.578633 0.582314,0.91772 0.485261,0.52442 0.703768,0.0657 0.527687,-0.10389 0.188005,-0.1693 0.376007,-0.36059 0.339683,-0.57912 0.40041,-0.71021 0.436736,-0.76464 0.57039,-0.83033 0.327482,-0.622809 4.440282,-2.327407 0.109252,-0.229242 0.08485,-0.305915 0.0366,-0.295165 -0.109254,-0.404303 -0.218506,-0.294919 -4.246177,-2.174336 -2.411887,-3.854459 -0.445887,-0.262703 z m 0.128387,3.746081 1.494605,2.219276 2.32149,1.180938 -0.01247,0.118622 -2.277679,1.164203 -1.436928,2.186571 -0.118959,0.0115 -1.411972,-2.19256 -2.333691,-1.160456 -0.01914,-0.201279 2.258822,-1.079297 0.282284,-0.214762 z"
       style="opacity:0.959;fill:#8a504c;stroke:#000000;stroke-width:0.101844;fill-opacity:1"
       id="path37" /><path
       d="m 46.980174,74.430848 -0.415504,0.149675 -0.34449,0.395622 -0.296897,0.492069 -0.213599,0.384896 -0.320705,0.534756 -0.415698,0.791417 -0.202469,0.213804 -0.688402,0.302463 -1.310039,0.63517 -0.957098,0.499151 -0.201509,0.287424 -0.03356,0.27222 0.03356,0.302465 0.201509,0.302464 0.403031,0.196687 0.772468,0.3932 0.755768,0.332706 0.772482,0.40824 0.302263,0.241981 1.091638,1.784702 0.403018,0.635169 0.335856,0.362959 0.487098,0.04543 0.36521,-0.07185 0.130122,-0.117185 0.260243,-0.249569 0.235102,-0.400812 0.277123,-0.491539 0.302276,-0.52923 0.394771,-0.574675 0.226661,-0.431054 3.073184,-1.610842 0.07556,-0.158659 0.05879,-0.211728 0.02536,-0.204286 -0.07556,-0.279823 -0.15124,-0.204116 -2.938838,-1.50489 -1.669294,-2.667722 -0.308615,-0.181832 z m 0.08888,2.592717 1.03444,1.535986 1.606731,0.817347 -0.009,0.08212 -1.576417,0.805767 -0.99452,1.513345 -0.08235,0.0081 -0.977242,-1.517496 -1.615185,-0.803172 -0.01332,-0.139306 1.563365,-0.74699 0.195375,-0.148648 z"
       style="opacity:0.959;fill:#8a504c;stroke:#000000;stroke-width:0.0704879;fill-opacity:1"
       id="path37-2" /></g></svg>
