<?xml version="1.0" encoding="UTF-8" standalone="no"?>
<!-- Created with Inkscape (http://www.inkscape.org/) -->

<svg
   width="210mm"
   height="297mm"
   viewBox="0 0 210 297"
   version="1.1"
   id="svg1"
   xml:space="preserve"
   inkscape:version="1.3 (0e150ed6c4, 2023-07-21)"
   sodipodi:docname="icone whats.svg"
   xmlns:inkscape="http://www.inkscape.org/namespaces/inkscape"
   xmlns:sodipodi="http://sodipodi.sourceforge.net/DTD/sodipodi-0.dtd"
   xmlns="http://www.w3.org/2000/svg"
   xmlns:svg="http://www.w3.org/2000/svg"><sodipodi:namedview
     id="namedview1"
     pagecolor="#505050"
     bordercolor="#eeeeee"
     borderopacity="1"
     inkscape:showpageshadow="0"
     inkscape:pageopacity="0"
     inkscape:pagecheckerboard="0"
     inkscape:deskcolor="#505050"
     inkscape:document-units="mm"
     inkscape:zoom="0.51717104"
     inkscape:cx="455.36193"
     inkscape:cy="627.452"
     inkscape:window-width="1920"
     inkscape:window-height="1017"
     inkscape:window-x="-8"
     inkscape:window-y="-8"
     inkscape:window-maximized="1"
     inkscape:current-layer="layer2" /><defs
     id="defs1" /><g
     inkscape:groupmode="layer"
     id="layer2"
     inkscape:label="Camada 2"><path
       style="opacity:0.959;fill:#fefefe;fill-opacity:1;stroke:#000000;stroke-width:0.3;stroke-dasharray:none"
       d="m 46.955941,180.40625 1.932342,-6.65234 1.507229,-4.73228 1.623173,-4.80986 1.082109,-2.87041 1.082114,-2.79282 0.695648,-1.62914 0.23187,-1.20248 0.115935,-1.12487 -0.135273,-1.59036 -0.637675,-2.03644 -1.043464,-2.73465 -0.656997,-1.59033 -0.731179,-2.47842 -0.314269,-1.43997 -0.368918,-1.83768 -0.324745,-2.24422 -0.164258,-1.84249 -0.08488,-2.89375 0.05463,-2.38625 0.09785,-1.28507 0.251205,-2.1334 0.252137,-1.35403 0.382587,-2.00225 0.36892,-1.52225 0.542227,-2.12293 0.81159,-2.38551 0.637674,-1.66795 0.995157,-2.04614 1.043466,-1.92974 0.697538,-1.25784 1.339049,-2.07082 0.628533,-0.87768 0.724177,-0.96 0.710517,-1.01484 1.503007,-1.71426 0.983792,-1.07654 0.683187,-0.70627 0.628532,-0.64456 0.649027,-0.58285 1.455186,-1.28226 1.639661,-1.343991 1.22973,-0.89141 1.93949,-1.26692 1.68114,-1.00855 1.50722,-0.79515 2.16423,-1.12489 2.41544,-0.93094 1.46858,-0.50428 1.44925,-0.50423 2.51205,-0.62064 2.18355,-0.42666 1.50723,-0.25215 1.25603,-0.15527 4.34777,-0.27154 3.49754,0.11639 2.18355,0.17447 1.970998,0.29093 1.31399,0.27151 1.29467,0.23254 1.25602,0.3685 3.26619,1.01688 2.62343,1.09712 1.12043,0.43886 1.42102,0.71313 1.3937,0.79542 1.44836,0.85027 1.67357,1.13944 1.54589,1.00853 1.06278,0.872771 2.76825,2.54718 1.13508,1.15718 1.58454,1.66793 2.12556,2.62797 2.04831,3.03525 1.77775,3.00616 0.92753,1.97825 0.81157,1.78434 0.50242,1.47397 0.94684,3.02555 0.36715,1.62917 0.21248,1.16365 0.36715,2.59888 0.23181,1.86188 0.18807,2.52988 0.082,1.70053 0.0273,2.27654 -0.21852,3.09937 -0.73587,3.96991 -0.8218,2.96942 -1.01111,3.12681 -1.55769,3.51077 -1.55765,2.93482 -3.2793,4.66279 -3.17,3.83993 -5.13756,4.33363 -2.54146,1.81027 -4.04445,2.22167 -2.50185,1.09758 -4.86953,1.78432 -2.57,0.56244 -3.246328,0.58184 -2.66666,0.21335 -3.49753,0.068 -2.92751,-0.0389 -4.74746,-0.67553 -2.56879,-0.57598 -2.29551,-0.74056 -3.19731,-1.20685 -2.04957,-0.8777 -1.77628,-0.93254 -0.6627,-0.34971 -0.70368,-0.007 -0.47823,0.0413 -17.09334,6.40445 -6.667906,2.30398 -0.502687,0.17495 -0.52173,-0.0194 z"
       id="path1" /><path
       style="opacity:0.959;fill:#0dbf42;fill-opacity:1;stroke:#ffffff;stroke-width:0.195382;stroke-dasharray:none;stroke-opacity:1"
       d="m 63.959573,153.69946 c -0.254976,-0.69174 -0.638551,-1.38348 -1.017535,-2.07522 -3.044874,-5.56989 -3.77741,-9.07241 -4.586189,-14.69957 -0.100512,-2.22568 -0.211928,-4.75906 -0.03933,-7.02471 0.414841,-1.89636 0.698846,-3.7525 1.151706,-5.62097 0.794576,-2.22133 0.686256,-3.00604 3.498588,-8.20729 1.081758,-1.80919 2.361489,-3.51753 3.558823,-5.06435 1.397196,-1.43276 3.062496,-3.31211 4.781476,-4.82685 0.60154,-0.14069 0.58593,-1.22284 8.37191,-5.38216 4.51748,-2.154241 9.42831,-2.693771 14.07923,-2.686021 2.84232,-0.13121 5.53835,0.40749 8.278098,1.01234 1.20326,0.33013 2.47497,0.83749 3.68939,1.215601 1.45465,0.4601 2.84454,0.95721 4.16452,1.75531 2.1086,0.94943 6.33916,3.60721 8.05173,5.34077 4.84979,4.34029 8.23423,9.85446 9.82575,16.35998 0.31618,1.38931 0.77386,2.82446 0.98397,4.31303 0.27664,0.94153 0.50803,4.47926 0.53235,6.78855 -0.0624,2.12822 -0.29438,3.84719 -0.66358,5.83907 -0.13706,0.82028 -0.89917,3.92393 -1.60434,5.59711 -0.42752,1.25195 -1.68096,4.03594 -2.56119,5.45952 -1.28953,2.40309 -3.18763,4.73753 -5.03917,6.70892 -1.47582,1.69791 -4.47516,4.19586 -6.75581,5.62398 l -5.12684,2.63908 c -2.19074,0.91723 -4.26665,1.76116 -6.38846,2.00563 -2.049438,0.39073 -4.380468,0.98155 -7.646808,0.80621 -6.43915,-0.06 -8.26499,-1.07459 -13.07844,-2.61293 l -3.59214,-1.74848 c -0.36858,-0.27124 -2.02026,-1.33976 -2.42774,-1.55107 l -1.1804,-0.14336 c -4.09221,1.116 -7.09326,2.50636 -10.741338,3.74499 -1.345364,0.57069 -3.847218,1.29635 -4.070906,1.20129 2.446783,-7.04468 5.567988,-13.78658 5.552677,-14.76857 z"
       id="path1-1"
       sodipodi:nodetypes="ccccccccccccccccccccccccccccccccc" /><path
       style="opacity:0.959;fill:#ffffff;fill-opacity:1;stroke:#0dbf42;stroke-width:0.242177;stroke-dasharray:none;stroke-opacity:1"
       d="m 85.525532,122.12548 c -1.1094,-2.66717 -2.24431,-5.32965 -3.36152,-7.99742 l -0.60121,-1.11082 c -1.18343,-1.3967 -3.89954,-1.12733 -5.73877,-0.73976 -2.66277,1.31054 -4.05263,4.31495 -5.11957,6.93962 -0.46049,1.77902 -0.45675,3.60603 -0.4058,5.43048 0.38497,2.80431 1.61718,5.42369 2.9839,7.87185 l 4.53636,6.59647 3.7712,4.22392 4.04446,3.67535 3.02135,2.26354 2.31881,1.39644 2.24151,1.16367 1.15941,0.46547 1.97099,0.73698 3.30431,1.14429 2.260818,0.58183 c 1.73275,0.51038 3.78475,0.64115 5.12074,0.6594 1.29613,-0.13656 2.57506,-0.47431 3.77067,-0.99253 l 0.85397,-0.38397 c 1.01381,-0.52425 1.72472,-1.05438 3.83953,-3.21596 0.59899,-0.9756 0.91938,-2.16963 1.16143,-3.31882 0.14842,-1.11 0.18444,-1.49214 0.24874,-2.41652 0.0344,-0.51332 -0.20161,-0.79309 -0.47349,-1.20248 -3.32395,-1.7253 -6.70439,-3.33298 -10.10614,-4.91654 -2.40782,-0.90268 -5.07542,4.74078 -6.05877,5.48416 -0.352328,0.43804 -0.815578,0.41947 -1.339048,0.45262 l -2.45947,-1.05601 c -4.34622,-1.99078 -13.53815,-9.44853 -14.42249,-14.22892 0.19735,-0.47492 0.53508,-0.84103 0.87922,-1.21217 l 0.68582,-0.74148 c 0.7749,-1.05866 1.6767,-2.04774 2.26818,-3.27766 0.28749,-0.77056 -0.1134,-1.52986 -0.35514,-2.27503 z"
       id="path2"
       sodipodi:nodetypes="ccccccccccccccccccccccccccccccccc" /></g></svg>
