<?xml version="1.0" encoding="UTF-8" standalone="no"?>
<!-- Created with Inkscape (http://www.inkscape.org/) -->

<svg
   width="210mm"
   height="297mm"
   viewBox="0 0 210 297"
   version="1.1"
   id="svg1"
   xml:space="preserve"
   inkscape:version="1.3 (0e150ed6c4, 2023-07-21)"
   sodipodi:docname="logo pi.svg"
   xmlns:inkscape="http://www.inkscape.org/namespaces/inkscape"
   xmlns:sodipodi="http://sodipodi.sourceforge.net/DTD/sodipodi-0.dtd"
   xmlns:xlink="http://www.w3.org/1999/xlink"
   xmlns="http://www.w3.org/2000/svg"
   xmlns:svg="http://www.w3.org/2000/svg"><sodipodi:namedview
     id="namedview1"
     pagecolor="#505050"
     bordercolor="#eeeeee"
     borderopacity="1"
     inkscape:showpageshadow="0"
     inkscape:pageopacity="0"
     inkscape:pagecheckerboard="0"
     inkscape:deskcolor="#505050"
     inkscape:document-units="mm"
     inkscape:zoom="0.1767767"
     inkscape:cx="132.93607"
     inkscape:cy="206.47518"
     inkscape:window-width="1920"
     inkscape:window-height="1017"
     inkscape:window-x="-8"
     inkscape:window-y="-8"
     inkscape:window-maximized="1"
     inkscape:current-layer="layer2" /><defs
     id="defs1"><linearGradient
       id="linearGradient3"
       inkscape:collect="always"><stop
         style="stop-color:#e6a7a2;stop-opacity:1;"
         offset="0"
         id="stop3" /><stop
         style="stop-color:#e6a7a2;stop-opacity:0;"
         offset="1"
         id="stop4" /></linearGradient><rect
       x="410.12193"
       y="197.9899"
       width="169.70563"
       height="59.39697"
       id="rect1" /><rect
       x="258.80108"
       y="400.22244"
       width="233.34524"
       height="117.37973"
       id="rect50" /><rect
       x="188.0904"
       y="401.63665"
       width="469.5189"
       height="226.27417"
       id="rect49" /><rect
       x="171.11984"
       y="403.05086"
       width="462.44783"
       height="137.17871"
       id="rect48" /><rect
       x="279"
       y="415.5"
       width="68"
       height="47"
       id="rect36" /><rect
       x="265"
       y="346"
       width="186.5"
       height="44"
       id="rect35" /><rect
       x="410.12192"
       y="197.9899"
       width="169.70563"
       height="59.396969"
       id="rect1-0" /><rect
       x="410.12192"
       y="197.9899"
       width="169.70563"
       height="59.396969"
       id="rect1-5" /><linearGradient
       inkscape:collect="always"
       xlink:href="#linearGradient3"
       id="linearGradient5"
       x1="409.73489"
       y1="204.73402"
       x2="423.21905"
       y2="204.73402"
       gradientUnits="userSpaceOnUse" /><linearGradient
       inkscape:collect="always"
       xlink:href="#linearGradient3"
       id="linearGradient6"
       x1="409.72808"
       y1="204.87141"
       x2="424.0741"
       y2="204.87141"
       gradientUnits="userSpaceOnUse" /><linearGradient
       inkscape:collect="always"
       xlink:href="#linearGradient3"
       id="linearGradient7"
       x1="409.73489"
       y1="204.64818"
       x2="422.41505"
       y2="204.64818"
       gradientUnits="userSpaceOnUse" /></defs><g
     inkscape:groupmode="layer"
     id="layer2"
     inkscape:label="Camada 2"><ellipse
       style="opacity:0.941;fill:#5ddfcb;fill-opacity:1;stroke:#e6a7a3;stroke-width:0.451427;stroke-opacity:1"
       id="path1"
       cx="108.70639"
       cy="108.58762"
       rx="98.774223"
       ry="101.12433" /><ellipse
       style="opacity:0.941;fill:#ffe7d6;fill-opacity:1;stroke:#e5a7a3;stroke-width:0.565596;stroke-opacity:1"
       id="path2"
       cx="108.70639"
       cy="109.26336"
       rx="68.174782"
       ry="72.236153" /><path
       d="m 118.69473,60.999202 -1.56547,0.05562 -0.1396,0.515255 0.009,0.003 -0.5009,2.553048 -0.36207,1.912672 -0.19876,1.231344 -0.37383,2.542228 -0.35821,1.88952 -0.34548,2.145959 2.10965,-0.136737 0.30208,-0.02475 0.011,-0.198537 0.37589,0.166089 -0.19045,0.01697 0.20445,-0.01621 -0.3855,-0.173046 0.32194,-1.371153 1.24953,-5.823758 0.73735,-3.633755 0.099,-0.469666 -0.16923,-0.873693 0.95804,0.499799 -0.59823,2.444142 -0.43593,1.832336 -0.25042,1.184212 -0.48696,2.450326 -0.4318,1.809923 -0.44662,2.111197 1.17178,-0.09423 0.37963,-1.238299 0.73739,-1.962105 0.96017,-2.428678 0.91584,-1.775186 1.00482,-2.009228 0.73731,-1.681687 0.0678,-1.378119 -1.88391,-0.0083 -0.96681,-0.01997 -0.46922,0.755484 -0.95727,-0.493605 -0.1994,-0.295082 z"
       style="opacity:0.941;fill:#8a504c;stroke-width:0.292373"
       id="path35" /><path
       d="m 115.8714,61.212415 -0.0288,-0.112008 -0.87551,0.03071 h -1.38439 l -0.11819,0.263417 -0.93564,-0.08731 -0.0927,-0.174576 0.20914,-0.003 h -1.59493 l -1.61283,0.01389 -0.0225,0.06799 -0.11152,2.592469 -0.067,1.938922 v 1.237528 l 0.0451,2.546107 -0.0674,1.915763 v 2.288862 h -0.006 l 0.006,0.06793 -0.7983,-0.01309 v -0.03165 h -0.009 l 0.0453,-1.44841 0.023,-6.095661 -0.0451,-3.784399 v -0.490286 l -0.49092,-0.746985 h 0.004 l -0.0282,-0.03168 0.27862,-0.006 -1.0625,0.009 -1.58157,-0.01313 -0.0258,0.105827 -0.01,5.45e-4 0.0239,2.549189 0.0309,1.904933 0.0523,1.212803 0.1396,2.490501 0.03,1.882535 0.0953,2.240968 0.004,-5.33e-4 0.0403,0.228646 -0.0508,0.004 1.59189,0.01006 3.59608,0.04708 1.07556,0.02476 0.0997,-1.34955 0.34657,-6.120372 0.17649,-3.802176 0.027,-0.49283 -0.27258,-0.771717 0.94035,0.08805 -0.21199,2.598631 -0.14852,1.943566 -0.0674,1.243717 -0.11002,2.558459 -0.14706,1.920388 -0.11893,2.196181 1.42656,0.03323 0.35086,-0.02253 -0.0794,-0.01997 0.0644,0.01918 -0.20671,0.01232 0.009,-0.06794 -0.006,-5.46e-4 0.26669,-1.429861 0.99359,-6.058596 0.57258,-3.772806 0.0784,-0.488213 -0.25607,-0.855135 z"
       style="opacity:0.941;fill:#8a504c;stroke-width:0.292373"
       id="path34" /><path
       d="m 105.7648,73.768355 -0.48252,-0.0089 v -0.129811 h -0.004 l -0.0272,-1.422149 -0.23715,-5.975149 -0.19138,-3.703293 -0.0215,-0.480484 -0.4033,-0.692145 h 0.006 l -0.17288,-0.210149 h 0.60861 l -1.81426,-0.01458 -1.37405,-0.01071 v 0.09653 l -0.30131,0.23484 -0.0812,0.03159 0.0781,-0.02479 0.29686,2.484307 0.23575,1.852405 0.18318,1.172624 0.41289,2.398561 0.23199,1.830789 0.33833,2.163733 0.009,-0.004 0.10631,0.203931 0.002,0.186935 -0.19649,-0.003 -0.54373,-0.0083 0.01,-0.145221 -0.009,0.003 -0.17948,-1.382732 -0.88714,-5.778196 -0.59696,-3.570409 -0.0722,-0.464279 -0.49422,-0.577809 -0.004,5.58e-4 -0.34574,-0.312092 -0.10493,-0.407888 -1.00835,-0.0084 h -4.833543 l 0.284439,1.668558 1.232189,2.493561 1.15241,1.998437 1.279478,3.138593 1.004685,3.148647 1.328972,0.143685 -0.009,-0.324439 0.16926,-0.118977 0.15518,-0.11432 0.065,-0.04869 -0.39015,0.280403 -0.409948,-1.354162 -1.829824,-5.629862 -1.172381,-3.469987 -0.14849,-0.451919 -0.528917,-0.482008 -0.004,0.004 -0.329445,-0.876 h 0.07219 l 0.374538,0.0083 h 0.83188 l -0.0274,0.275784 0.006,-0.006 0.714329,2.436414 0.544427,1.815337 0.374558,1.141728 0.797822,2.329046 0.537803,1.793703 0.692248,2.110423 -6.7e-4,5.49e-4 0.22079,0.723044 -0.13661,0.004 h -0.0707 l 3.19581,0.02248 z"
       style="opacity:0.941;fill:#8a504c;stroke-width:0.292373"
       id="path33" /><path
       d="m 104.85975,44.51209 -1.40715,0.70063 -0.96041,0.724601 -0.40181,0.794109 0.42397,0.747004 0.51345,-1.050591 0.60353,-0.210112 0.67001,0.279637 0.73721,0.701408 0.2231,0.723822 -0.17873,1.097702 -0.71432,0.981059 -0.69294,0.817283 -1.20564,0.700647 -0.96106,0.583986 -1.18342,0.0703 -1.228531,0.280432 -0.916036,0.280391 -0.559217,0.139832 -1.407291,1.097698 -1.139104,0.981058 -0.35755,1.028177 -0.178028,1.354169 0.223086,1.121635 0.513405,1.728047 0.670801,0.09345 2.841132,-0.054 0.03676,-1.008861 0.06282,-1.38738 0.947814,-1.056757 1.105859,-1.288498 1.57942,-0.957878 1.51591,-0.892227 1.58013,-1.320951 1.26324,-1.420577 1.01054,-0.924683 0.43068,-0.934706 0.34874,-1.361105 -0.0683,-1.239064 0.56794,0.809548 0.12619,0.743144 -0.42608,1.684771 -0.74214,1.139431 -0.758,0.825775 -0.82164,0.72691 -0.71066,0.776344 -1.08959,0.644253 -0.91594,0.660479 -1.05854,0.495147 -0.61614,0.5786 -0.41071,0.445723 -0.63167,0.412498 -0.52222,0.797993 -0.48029,0.467342 -0.276982,0.634211 -0.06287,1.536476 0.08413,0.393948 4.689562,-0.08885 2.6356,0.233306 h 1.32239 l -0.0936,-0.794125 0.3122,-0.303589 0.29012,-0.583995 0.82683,-0.747758 0.60273,-0.723817 0.82679,-1.074525 0.49125,-1.004228 0.26808,-0.95788 -0.0896,-1.050578 -0.22322,-1.051362 0.55857,0.630358 0.44596,1.26147 0.22395,1.097692 -0.53625,1.028165 -0.37984,0.840481 -0.37889,0.499782 -0.50532,0.743909 -0.69512,0.759355 -0.61622,0.628026 -0.0533,0.802619 h 0.97511 l 3.30591,-0.04636 1.67625,0.07961 0.26639,-0.757034 0.91622,-0.747772 0.55841,-0.58399 0.66995,-0.677472 0.4249,-1.004224 0.0899,-1.307814 0.0225,-0.887594 0.31265,0.63035 0.13407,0.747764 0.0454,0.584002 -0.0454,0.607171 -0.24553,0.513706 -0.29058,0.44417 -0.69307,0.70064 -0.31234,0.443401 -0.31236,0.257243 -0.13465,0.607169 -0.10177,0.490536 h 2.38101 l 1.87552,-0.186941 0.82305,-0.263426 0.66322,-1.436817 -0.014,-1.94356 -0.93824,-1.962126 -1.02753,-1.401274 -1.51878,-1.868632 -3.28387,-2.616404 -4.62347,-2.148279 -2.99328,-1.284631 -1.60824,-0.677471 z"
       style="opacity:0.941;fill:#e6a7a3;stroke:#e6a7a3;stroke-width:0.292373"
       id="path18" /><text
       xml:space="preserve"
       transform="matrix(0.74580702,0,0,1.4235512,-142.08052,-416.16357)"
       id="text35"
       style="white-space:pre;shape-inside:url(#rect35);opacity:0.941;fill:#8a514c;fill-opacity:1;stroke:none;stroke-width:0.755906;stroke-dasharray:none;stroke-opacity:1"><tspan
         x="265"
         y="356.94796"
         id="tspan2"><tspan
           style="font-family:'Book Antiqua';-inkscape-font-specification:'Book Antiqua'"
           id="tspan1">DELICERIA </tspan></tspan></text><text
       xml:space="preserve"
       transform="scale(0.26458333)"
       id="text36"
       style="fill:#7e5042;opacity:1;stroke:none;stroke-opacity:1;fill-opacity:0.42745098;stroke-width:0.75590551;stroke-dasharray:none;-inkscape-font-specification:'Book Antiqua';font-family:'Book Antiqua';font-weight:normal;font-style:normal;font-stretch:normal;font-variant:normal;white-space:pre;shape-inside:url(#rect36)" /><text
       xml:space="preserve"
       style="font-style:normal;font-variant:normal;font-weight:normal;font-stretch:normal;font-size:11.553px;font-family:'Book Antiqua';-inkscape-font-specification:'Book Antiqua';opacity:0.941;fill:#8a514c;fill-opacity:1;stroke:none;stroke-width:0.727815;stroke-dasharray:none;stroke-opacity:1"
       x="162.59833"
       y="69.973579"
       id="text37"
       transform="scale(0.76137008,1.3134217)"><tspan
         sodipodi:role="line"
         id="tspan37"
         style="fill:#8a514c;fill-opacity:1;stroke:none;stroke-width:0.727815;stroke-opacity:1"
         x="162.59833"
         y="69.973579">DA</tspan></text><text
       xml:space="preserve"
       transform="scale(0.26458333)"
       id="text48"
       style="fill:#8a514c;opacity:1;stroke:#8b504b;stroke-opacity:1;fill-opacity:1;stroke-width:0.75590551;stroke-dasharray:none;-inkscape-font-specification:'Book Antiqua';font-family:'Book Antiqua';font-weight:normal;font-style:normal;font-stretch:normal;font-variant:normal;white-space:pre;shape-inside:url(#rect48)" /><text
       xml:space="preserve"
       transform="scale(0.26458333)"
       id="text49"
       style="fill:#8a514c;opacity:1;stroke:#8b504b;stroke-opacity:1;fill-opacity:1;stroke-width:0.75590551;stroke-dasharray:none;-inkscape-font-specification:'Book Antiqua';font-family:'Book Antiqua';font-weight:normal;font-style:normal;font-stretch:normal;font-variant:normal;white-space:pre;shape-inside:url(#rect49)" /><text
       xml:space="preserve"
       transform="matrix(2.5099805,0,0,3.9745477,-585.04279,-1475.0696)"
       id="text50"
       style="font-style:normal;font-variant:normal;font-weight:normal;font-stretch:normal;font-family:'Book Antiqua';-inkscape-font-specification:'Book Antiqua';white-space:pre;shape-inside:url(#rect50);opacity:0.941;fill:#e6a8a3;fill-opacity:1;stroke:#8a504c;stroke-width:0.398131;stroke-dasharray:none;stroke-opacity:1"><tspan
         x="258.80078"
         y="410.72266"
         id="tspan4"><tspan
           style="font-family:'Buttercup Script';-inkscape-font-specification:'Buttercup Script'"
           id="tspan3">F</tspan></tspan></text><text
       xml:space="preserve"
       transform="matrix(1.5103591,0,0,1.5655516,-527.33736,-170.50471)"
       id="text1"
       style="font-style:normal;font-variant:normal;font-weight:normal;font-stretch:normal;font-family:'Buttercup Script';-inkscape-font-specification:'Buttercup Script';white-space:pre;shape-inside:url(#rect1);opacity:0.941;fill:#e6a8a3;fill-opacity:1;stroke:#8a504c;stroke-width:0.429289;stroke-dasharray:none;stroke-opacity:1"><tspan
         x="410.12109"
         y="208.49023"
         id="tspan5">R</tspan></text><text
       xml:space="preserve"
       transform="matrix(1.5103591,0,0,1.5655516,-506.14479,-170.1864)"
       id="text1-8"
       style="font-style:normal;font-variant:normal;font-weight:normal;font-stretch:normal;font-family:'Buttercup Script';-inkscape-font-specification:'Buttercup Script';white-space:pre;shape-inside:url(#rect1-0);opacity:0.941;fill:#e6a8a3;fill-opacity:1;stroke:#8a504c;stroke-width:0.429289;stroke-dasharray:none;stroke-opacity:1"><tspan
         x="410.12109"
         y="208.49023"
         id="tspan6">A</tspan></text><text
       xml:space="preserve"
       transform="matrix(1.5103591,0,0,1.5655516,-483.20417,-169.18032)"
       id="text1-9"
       style="font-style:normal;font-variant:normal;font-weight:normal;font-stretch:normal;font-family:'Buttercup Script';-inkscape-font-specification:'Buttercup Script';white-space:pre;shape-inside:url(#rect1-5);display:inline;opacity:0.941;fill:#e6a8a3;fill-opacity:1;stroke:#8a504c;stroke-width:0.429289;stroke-dasharray:none;stroke-opacity:1"><tspan
         x="410.12109"
         y="208.49023"
         id="tspan7">N</tspan></text></g></svg>
