<?xml version="1.0" encoding="UTF-8" standalone="no"?>
<!-- Created with Inkscape (http://www.inkscape.org/) -->

<svg
   width="210mm"
   height="297mm"
   viewBox="0 0 210 297"
   version="1.1"
   id="svg1"
   xml:space="preserve"
   inkscape:version="1.3 (0e150ed6c4, 2023-07-21)"
   sodipodi:docname="icone especial.svg"
   xmlns:inkscape="http://www.inkscape.org/namespaces/inkscape"
   xmlns:sodipodi="http://sodipodi.sourceforge.net/DTD/sodipodi-0.dtd"
   xmlns="http://www.w3.org/2000/svg"
   xmlns:svg="http://www.w3.org/2000/svg"><sodipodi:namedview
     id="namedview1"
     pagecolor="#505050"
     bordercolor="#eeeeee"
     borderopacity="1"
     inkscape:showpageshadow="0"
     inkscape:pageopacity="0"
     inkscape:pagecheckerboard="0"
     inkscape:deskcolor="#505050"
     inkscape:document-units="mm"
     inkscape:zoom="0.70710678"
     inkscape:cx="-132.22897"
     inkscape:cy="671.04434"
     inkscape:window-width="1920"
     inkscape:window-height="1017"
     inkscape:window-x="-8"
     inkscape:window-y="-8"
     inkscape:window-maximized="1"
     inkscape:current-layer="layer2" /><defs
     id="defs1" /><g
     inkscape:groupmode="layer"
     id="layer2"
     inkscape:label="Camada 2"><path
       d="m 170.05264,93.092095 -1.35655,0.100505 -0.68673,0.178009 -1.17593,0.317016 -1.13319,0.464276 -1.28496,0.634782 -0.93481,0.787542 -0.72835,0.557779 -0.53414,0.634533 -0.61932,0.754789 -0.31076,0.474776 -0.17148,-0.0077 -0.36931,-0.533778 -0.60933,-0.804541 -0.53218,-0.510278 -0.558,-0.502776 -0.77526,-0.587781 -0.59489,-0.39377 -0.57048,-0.350268 -0.87402,-0.37177 -1.18979,-0.426523 -1.23836,-0.295515 -0.89817,-0.0875 -1.00778,-0.011 -0.9348,0.06576 -0.74057,0.109256 -1.04384,0.251763 -0.74057,0.251513 -1.31105,0.743789 -1.04412,0.820542 -0.49779,0.503027 -0.59489,0.809543 -0.32769,0.645284 -0.28663,0.58203 -0.30883,0.773541 -0.15455,0.897296 -0.0344,0.990054 0.17175,1.0983 0.2747,0.7503 0.19729,0.51052 0.26609,0.52603 0.16315,0.30151 0.18036,0.28627 0.2919,0.35577 0.48058,0.56453 -12.98785,0.13926 -0.2747,0.147 -0.3521,0.23202 -0.23169,0.21652 -0.12015,0.263 0.0144,9.90703 0.0363,0.28451 0.23086,0.35002 0.26692,0.29526 0.32797,0.10951 0.26693,0.0765 1.5297,-0.011 -0.0377,8.43343 2.58714,0.008 v -8.44118 l 16.11355,0.0102 -0.0214,8.46968 2.58382,-0.0155 -0.0777,-8.45342 h 10.79249 l 0.007,16.83012 h 2.60961 l -0.0172,-16.79988 10.6102,-0.031 0.0344,-2.30488 -6.62711,-0.0155 -0.0369,-7.29388 14.71372,-0.033 v 7.36189 l -5.34159,0.0327 v 2.25337 l 2.73142,0.0438 0.0363,45.35162 -0.0485,0.20775 -0.085,0.10951 -0.12153,0.011 -14.4318,-0.0429 -0.0172,2.32063 14.24868,-0.019 0.5283,-0.011 0.39456,-0.0658 0.20033,-0.10376 0.42482,-0.175 0.29135,-0.22426 0.30964,-0.1805 0.24279,-0.24627 0.20034,-0.20227 0.21836,-0.48128 0.19425,-0.39376 -0.0808,-45.91464 h 1.58381 l 0.24916,-0.0232 0.2403,-0.093 0.18868,-0.10826 0.16314,-0.17001 0.14596,-0.1935 0.0861,-0.16226 0.11154,-0.20127 -0.0688,-9.30498 -0.0271,-0.73705 -0.0302,-0.13676 -0.0424,-0.16976 -0.0911,-0.12576 -0.13512,-0.161 -0.32631,-0.18551 -0.37625,-0.12375 -13.04445,0.0548 0.006,-0.26252 h 0.13347 l 0.33989,-0.33926 0.38846,-0.48128 0.41288,-0.72178 0.41371,-0.96506 0.20616,-0.64178 0.14595,-1.12156 -0.009,-0.734791 -0.0172,-0.487274 -0.20618,-0.820043 -0.24028,-0.765792 -0.25749,-0.665034 -0.48059,-0.711536 -0.48085,-0.603533 -0.51499,-0.603282 -0.70394,-0.510526 -0.9878,-0.585781 -0.75887,-0.366269 -0.96505,-0.317267 -1.06826,-0.273515 z m -0.0799,2.372374 0.73835,0.0155 0.77247,0.03101 0.93564,0.201261 0.80715,0.363519 0.75528,0.515526 0.60101,0.552279 0.4248,0.558029 0.37348,0.617034 0.2747,0.642033 0.13735,1.005553 0.0172,1.137057 -0.2661,0.62654 -0.23196,0.58777 -0.41982,0.64004 -0.47364,0.54678 -0.89818,0.68929 -0.64622,0.32826 -0.558,0.24752 -1.30273,0.23351 h -8.47366 c -0.0213,-0.3331 -0.0802,-2.04907 -0.12015,-3.07367 l 0.21865,-0.89329 0.22919,-0.66004 0.31548,-0.743784 0.36433,-0.56878 0.47641,-0.721539 0.41233,-0.433021 0.39483,-0.417774 0.61793,-0.510526 0.3091,-0.232012 0.58379,-0.402271 0.60074,-0.278515 1.28774,-0.402021 0.42064,-0.09301 0.52359,-0.054 z m -17.60384,0.03326 0.79829,0.054 0.52386,0.05425 0.42065,0.09276 1.28745,0.40227 0.60101,0.278265 0.5838,0.402273 0.30883,0.232011 0.61818,0.510526 0.39485,0.417772 0.41204,0.433022 0.47642,0.72154 0.36432,0.568778 0.31577,0.743784 0.22918,0.66004 0.21864,0.8933 c -0.04,1.02458 -0.0989,2.74056 -0.12013,3.07366 h -8.47368 l -1.303,-0.23351 -0.55799,-0.24752 -0.64596,-0.32826 -0.89845,-0.68929 -0.47336,-0.54678 -0.42009,-0.64003 -0.23169,-0.58778 -0.26609,-0.62653 0.0172,-1.137065 0.13735,-1.005553 0.27469,-0.641784 0.37319,-0.617282 0.4251,-0.55803 0.60071,-0.552278 0.75556,-0.515528 0.80688,-0.363519 0.93563,-0.201261 0.77276,-0.03101 z m -17.87882,11.879131 14.76227,0.011 -0.0242,2.41737 2.60989,0.011 0.0122,-2.37613 h 18.69158 v 7.20889 l -18.76507,-0.0155 v -2.36688 l -2.50667,-0.0155 -0.0172,2.36688 -14.7384,0.0222 z"
       style="opacity:0.959;fill:#8a504c;fill-opacity:1;stroke:#000000;stroke-width:0.102092;stroke-dasharray:none"
       id="path4" /><path
       d="m 147.10361,127.88667 -1.09546,0.205 -1.04745,0.27853 -0.95284,0.43526 -0.89816,0.53604 -0.82575,0.65628 -0.5827,0.56877 -0.32769,0.47029 -0.3399,-0.0107 -0.0607,-0.20801 -0.29135,-0.41553 -0.38846,-0.36102 -0.41287,-0.29527 -0.66759,-0.57978 -0.60711,-0.30625 -0.64318,-0.31728 -1.52581,-0.48977 -0.95089,-0.13376 -13.3333,0.002 -0.2919,0.14702 -0.28329,0.25526 -0.18868,0.24751 -0.13735,0.38653 0.0794,2.63688 0.0363,0.79854 0.10932,0.7548 0.43702,1.02805 0.30354,0.56902 0.30467,0.46253 0.77581,0.88281 -0.0363,0.1095 -11.84883,0.13125 -0.29135,0.19677 -0.26692,0.21875 -0.17009,0.28451 v 0.54679 l -0.0424,7.21962 0.0122,0.12575 0.0972,0.22427 0.0971,0.14226 0.19728,0.19126 0.19118,0.14225 0.38235,0.15326 2.98642,0.06 0.0105,16.58961 0.0258,0.37902 0.11155,0.43328 0.34323,0.56452 0.3435,0.36353 0.44646,0.32475 0.54079,0.29403 0.53218,0.19351 49.75075,0.0115 0.38846,-0.12051 0.36433,-0.21876 0.24278,-0.28426 0.1576,-0.32826 0.0178,-18.21896 0.11599,-0.0598 2.6221,0.011 0.3399,-0.1095 0.30355,-0.0875 0.19423,-0.15301 0.2672,-0.40477 0.13346,-0.28452 -0.0729,-7.44912 -0.0363,-0.25153 -0.21837,-0.383 -0.24278,-0.21878 -0.36432,-0.175 -11.74533,-0.0383 -5.4e-4,-0.14226 0.36044,-0.38676 0.29189,-0.30928 0.39485,-0.51053 0.32631,-0.77353 0.30882,-0.75805 0.18896,-0.54152 0.10294,-0.54128 -0.001,-3.29443 -0.0605,-0.26275 -0.12154,-0.29528 -0.13347,-0.18601 -0.25498,-0.18576 -0.41261,-0.14225 z m 11.39848,2.22311 v 1.91836 l -0.0816,0.34801 -0.13735,0.48728 -0.19729,0.43302 -0.12874,0.29403 -0.40649,0.63427 -0.53746,0.57954 -0.43702,0.33901 -0.55827,0.35002 -0.29134,0.16401 -0.52831,0.21326 -0.92397,0.25677 -0.30883,0.0775 -11.48367,-0.0332 -0.0621,-0.11376 0.009,-0.37901 -0.0172,-0.40228 0.0427,-0.78104 0.0402,-0.32576 0.0363,-0.29003 0.10932,-0.39376 0.27775,-0.49502 0.38208,-0.64979 0.66509,-0.71529 0.77275,-0.58803 1.09879,-0.53353 1.09018,-0.29402 z m -34.65441,0.0397 11.57608,0.10051 1.09018,0.29401 1.09878,0.53353 0.77249,0.58803 0.66537,0.71529 0.3818,0.64978 0.27802,0.49502 0.10933,0.39378 0.0363,0.29001 0.0399,0.32553 0.043,0.78129 -0.0172,0.40225 0.009,0.37904 -0.0621,0.1135 -11.48368,0.0335 -0.3091,-0.0775 -0.92397,-0.25676 -0.52803,-0.21327 -0.29135,-0.164 -0.55855,-0.35002 -0.43701,-0.33927 -0.53718,-0.57928 -0.4065,-0.63429 -0.12875,-0.29401 -0.19756,-0.43302 -0.13734,-0.48753 -0.0816,-0.34802 z m 26.72791,8.42445 18.60469,0.0437 -0.003,4.851 -18.66212,-0.0162 z m -37.37889,0.0272 18.73314,0.01 -0.0688,4.84199 -9.26224,-0.054 v 2.41613 h 13.28751 v 16.81263 l -18.27061,0.0438 -0.20644,-0.0548 -0.0729,-0.12026 -0.0849,-0.12025 -0.0485,-16.59387 2.76805,0.0217 -0.0244,-2.37363 h -0.14567 l -6.55552,0.0217 z m 34.69602,0.005 v 4.85675 l -13.39044,0.011 0.0607,-4.85676 z m -4.02831,7.21312 0.0291,16.83013 -5.37488,0.0437 -0.0194,-16.86613 z m 2.72115,0.008 18.60607,0.0113 0.0347,16.86713 -18.64076,-0.0655 z"
       style="opacity:0.959;fill:#8a504c;fill-opacity:1;stroke:#000000;stroke-width:0.101225;stroke-dasharray:none"
       id="path34" /><path
       d="m 118.41814,108.61591 -0.60073,0.21651 -0.49806,0.57228 -0.42924,0.71179 -0.30882,0.55678 -0.46365,0.77354 -0.60101,1.14481 -0.29273,0.30927 -0.99529,0.43752 -1.894,0.9188 -1.38375,0.72203 -0.29135,0.41577 -0.0485,0.39378 0.0485,0.43752 0.29135,0.43752 0.58268,0.28452 1.11682,0.56879 1.09268,0.48127 1.11682,0.59052 0.43702,0.35002 1.57826,2.58164 0.58267,0.91879 0.48557,0.52503 0.70423,0.0658 0.52803,-0.10401 0.18812,-0.1695 0.37625,-0.36101 0.3399,-0.5798 0.40067,-0.71104 0.43702,-0.76553 0.57076,-0.83129 0.32769,-0.62354 4.44313,-2.33011 0.10933,-0.22951 0.085,-0.30627 0.0366,-0.29551 -0.10932,-0.40477 -0.21865,-0.29527 -4.2489,-2.17687 -2.41344,-3.85896 -0.44618,-0.263 z m 0.12846,3.75045 1.49557,2.22187 2.32299,1.1823 -0.0125,0.11877 -2.27915,1.16556 -1.43785,2.18911 -0.11904,0.0115 -1.41288,-2.19511 -2.33518,-1.16181 -0.0191,-0.20151 2.26026,-1.08055 0.28248,-0.21501 z"
       style="opacity:0.959;fill:#8a504c;fill-opacity:1;stroke:#000000;stroke-width:0.101225;stroke-dasharray:none"
       id="path37" /><path
       d="m 126.94682,93.392113 -0.41577,0.14985 -0.34471,0.396083 -0.29709,0.492643 -0.21374,0.385345 -0.32091,0.535378 -0.41596,0.79234 -0.20261,0.214053 -0.68884,0.302816 -1.31088,0.63591 -0.95772,0.499732 -0.20164,0.28776 -0.0336,0.272537 0.0336,0.302818 0.20164,0.302816 0.40329,0.196917 0.77297,0.393657 0.75626,0.333094 0.77297,0.408718 0.30246,0.24226 1.09234,1.78678 0.40328,0.63591 0.33607,0.36339 0.48741,0.0455 0.36544,-0.0719 0.13021,-0.11732 0.26042,-0.24986 0.23525,-0.40128 0.2773,-0.49211 0.30247,-0.52985 0.39502,-0.57534 0.22681,-0.43156 3.07515,-1.612716 0.0756,-0.158844 0.0588,-0.211975 0.0254,-0.204524 -0.0756,-0.280149 -0.15133,-0.204354 -2.94072,-1.506644 -1.67037,-2.670832 -0.30881,-0.182044 z m 0.0889,2.595739 1.03511,1.537776 1.60776,0.8183 -0.009,0.08222 -1.57744,0.806707 -0.99516,1.515105 -0.0824,0.008 -0.97787,-1.519262 -1.61622,-0.804108 -0.0133,-0.139469 1.56437,-0.747861 0.19551,-0.148821 z"
       style="opacity:0.959;fill:#8a504c;fill-opacity:1;stroke:#000000;stroke-width:0.0700592;stroke-dasharray:none"
       id="path37-2" /></g></svg>
