<?xml version="1.0" encoding="UTF-8" standalone="no"?>
<!-- Created with Inkscape (http://www.inkscape.org/) -->

<svg
   width="210mm"
   height="297mm"
   viewBox="0 0 210 297"
   version="1.1"
   id="svg1"
   inkscape:version="1.3 (0e150ed6c4, 2023-07-21)"
   sodipodi:docname="icone contato.svg"
   xmlns:inkscape="http://www.inkscape.org/namespaces/inkscape"
   xmlns:sodipodi="http://sodipodi.sourceforge.net/DTD/sodipodi-0.dtd"
   xmlns="http://www.w3.org/2000/svg"
   xmlns:svg="http://www.w3.org/2000/svg">
  <sodipodi:namedview
     id="namedview1"
     pagecolor="#505050"
     bordercolor="#eeeeee"
     borderopacity="1"
     inkscape:showpageshadow="0"
     inkscape:pageopacity="0"
     inkscape:pagecheckerboard="0"
     inkscape:deskcolor="#505050"
     inkscape:document-units="mm"
     inkscape:zoom="0.73139029"
     inkscape:cx="397.18876"
     inkscape:cy="559.89258"
     inkscape:window-width="1920"
     inkscape:window-height="1017"
     inkscape:window-x="-8"
     inkscape:window-y="-8"
     inkscape:window-maximized="1"
     inkscape:current-layer="layer1" />
  <defs
     id="defs1" />
  <g
     inkscape:label="Camada 1"
     inkscape:groupmode="layer"
     id="layer1">
    <path
       style="opacity:0.958974;fill:#8a504c;fill-opacity:1;stroke:#000000;stroke-width:0.5;stroke-dasharray:none;stroke-opacity:1"
       d="m 117.75618,129.15388 c -6.01619,-1.01522 -10.54481,-3.39288 -15.42693,-8.09959 -3.29421,-3.17585 -5.12156,-5.7995 -11.10811,-15.94867 -7.41807,-12.57607 -9.22034,-17.37418 -9.21488,-24.53248 0.003,-4.08282 1.01779,-8.56477 2.62749,-11.60599 1.52318,-2.87775 5.74022,-7.27853 8.63902,-9.01543 2.70865,-1.62297 4.24914,-1.63585 6.3245,-0.0529 1.72738,1.31754 4.33362,4.92899 6.10134,8.45459 l 1.44702,2.88597 24.28273,0.0211 c 13.3555,0.0116 24.80413,0.12539 25.44137,0.25284 0.63726,0.12745 1.71574,0.75714 2.39663,1.39929 l 1.23798,1.16757 v 18.81014 c 0,18.74799 -0.003,18.81344 -0.78425,19.80715 -1.45783,1.85334 -2.34759,1.9946 -12.56319,1.9946 -8.05529,0 -9.47226,-0.0809 -9.95985,-0.56847 -0.31266,-0.31266 -0.56847,-0.76847 -0.56847,-1.01291 0,-1.20924 0.80554,-1.31265 10.22524,-1.31265 5.75824,0 9.62615,-0.14403 10.05676,-0.37448 0.67638,-0.362 0.69972,-0.93516 0.69972,-17.18332 0,-9.24485 -0.13208,-16.80883 -0.2935,-16.80883 -0.16144,0 -5.89976,4.40752 -12.75183,9.79449 -6.85208,5.38696 -13.06229,10.10785 -13.80048,10.49086 -1.70369,0.88395 -4.12251,0.89373 -5.53116,0.0224 -1.40708,-0.8704 -18.14292,-13.84343 -19.44417,-15.07243 l -0.99472,-0.93949 -1.79037,0.97444 c -2.67087,1.45367 -3.36846,2.35931 -3.55561,4.61606 -0.18768,2.26314 -0.37469,1.84929 5.09567,11.27633 5.03809,8.6821 5.19894,8.86996 8.16521,9.53643 1.39114,0.31257 1.74308,0.21088 4.96529,-1.43466 3.75992,-1.92015 4.05185,-1.97985 6.58456,-1.34665 2.409,0.60227 5.44108,3.76285 8.34287,8.69643 3.83812,6.52551 4.12614,9.79018 1.03585,11.741 -4.81117,3.03716 -10.58438,4.26121 -15.88173,3.36728 z m 7.13012,-3.0792 c 4.17863,-0.7287 7.52989,-2.42592 7.69877,-3.89901 0.40025,-3.49116 -5.77006,-12.87619 -9.21259,-14.01233 -1.23047,-0.40609 -1.48367,-0.3363 -4.50075,1.24046 -2.66666,1.39363 -3.52537,1.67076 -5.17701,1.67076 -4.13448,0 -6.00076,-1.38379 -9.21975,-6.83615 -4.19733,-7.10949 -6.64726,-11.37301 -7.33887,-12.77153 -0.82867,-1.67571 -0.85969,-4.6449 -0.0727,-6.95474 0.52764,-1.54852 0.87914,-1.91249 3.34623,-3.46493 1.51616,-0.95406 3.22125,-2.19684 3.7891,-2.76174 1.61015,-1.60181 1.26688,-3.83869 -1.37747,-8.97619 -2.3516,-4.56876 -4.76268,-7.43326 -6.25664,-7.43326 -1.92817,0 -6.23966,3.61719 -8.62382,7.23508 -0.45891,0.69638 -1.28512,2.48706 -1.83603,3.97929 -0.91722,2.48445 -0.99977,3.12484 -0.97929,7.59684 0.0207,4.52968 0.10839,5.13934 1.20915,8.41086 1.88502,5.60237 12.19025,23.4042 16.19783,27.98104 5.1336,5.86278 11.49129,9.17911 18.22194,9.50499 0.5211,0.0252 2.38042,-0.20402 4.13185,-0.50944 z m 17.14302,-40.69966 c 7.1635,-5.57926 13.12099,-10.30015 13.23886,-10.49086 0.13555,-0.21934 -6.21908,-0.34675 -17.29434,-0.34675 -9.62975,0 -20.19508,-0.10595 -23.4785,-0.23545 l -5.96987,-0.23544 -0.22363,1.88818 c -0.12299,1.0385 -0.4603,2.36262 -0.74958,2.94248 l -0.52595,1.0543 9.46526,7.3586 c 10.33772,8.03687 10.54508,8.18201 11.71273,8.19806 0.50756,0.007 5.56628,-3.70084 13.82502,-10.13312 z"
       id="path10" />
  </g>
</svg>
