<?xml version="1.0" encoding="UTF-8" standalone="no"?>
<!-- Created with Inkscape (http://www.inkscape.org/) -->

<svg
   width="210mm"
   height="297mm"
   viewBox="0 0 210 297"
   version="1.1"
   id="svg1"
   inkscape:version="1.3 (0e150ed6c4, 2023-07-21)"
   sodipodi:docname="icone contato.svg"
   xmlns:inkscape="http://www.inkscape.org/namespaces/inkscape"
   xmlns:sodipodi="http://sodipodi.sourceforge.net/DTD/sodipodi-0.dtd"
   xmlns="http://www.w3.org/2000/svg"
   xmlns:svg="http://www.w3.org/2000/svg">
  <sodipodi:namedview
     id="namedview1"
     pagecolor="#505050"
     bordercolor="#eeeeee"
     borderopacity="1"
     inkscape:showpageshadow="0"
     inkscape:pageopacity="0"
     inkscape:pagecheckerboard="0"
     inkscape:deskcolor="#505050"
     inkscape:document-units="mm"
     inkscape:zoom="0.73139029"
     inkscape:cx="397.18876"
     inkscape:cy="558.52533"
     inkscape:window-width="1920"
     inkscape:window-height="1017"
     inkscape:window-x="-8"
     inkscape:window-y="-8"
     inkscape:window-maximized="1"
     inkscape:current-layer="layer1" />
  <defs
     id="defs1" />
  <g
     inkscape:label="Camada 1"
     inkscape:groupmode="layer"
     id="layer1">
    <path
       style="opacity:0.958974;fill:#8a504c;fill-opacity:1;stroke:#000000;stroke-width:0.505919;stroke-dasharray:none;stroke-opacity:1"
       d="m 147.37823,173.54254 c -6.09252,-1.02637 -10.6786,-3.43016 -15.62266,-8.18858 -3.33601,-3.21073 -5.18654,-5.86321 -11.24905,-16.12388 -7.51219,-12.71424 -9.33733,-17.56507 -9.3318,-24.80201 0.003,-4.12767 1.0307,-8.65886 2.66083,-11.7335 1.5425,-2.90936 5.81305,-7.35849 8.74863,-9.11447 2.74302,-1.6408 4.30305,-1.65382 6.40474,-0.0535 1.7493,1.33202 4.38861,4.98314 6.17876,8.54747 l 1.46538,2.91768 24.59083,0.0213 c 13.52495,0.0117 25.11885,0.12677 25.76417,0.25562 0.64535,0.12885 1.73751,0.76545 2.42704,1.41467 l 1.25369,1.18039 v 19.01679 c 0,18.95396 -0.003,19.02013 -0.7942,20.02477 -1.47633,1.87369 -2.37738,2.01651 -12.72259,2.01651 -8.1575,0 -9.59245,-0.0818 -10.08623,-0.57472 -0.31662,-0.31609 -0.57568,-0.77691 -0.57568,-1.02404 0,-1.22253 0.81576,-1.32707 10.35498,-1.32707 5.8313,0 9.74829,-0.14561 10.18436,-0.3786 0.68496,-0.36597 0.7086,-0.94542 0.7086,-17.3721 0,-9.34641 -0.13375,-16.9935 -0.29723,-16.9935 -0.16348,0 -5.97461,4.45595 -12.91362,9.90211 -6.93902,5.44613 -13.22803,10.21889 -13.97558,10.60611 -1.7253,0.89366 -4.17482,0.90355 -5.60134,0.0226 -1.42494,-0.87997 -18.37312,-13.99553 -19.69089,-15.23803 l -1.00733,-0.94981 -1.81309,0.98515 c -2.70475,1.46964 -3.4112,2.38523 -3.60072,4.66677 -0.19007,2.28801 -0.37945,1.86961 5.16032,11.40022 5.10201,8.77748 5.2649,8.96741 8.26881,9.6412 1.40879,0.31601 1.7652,0.21319 5.0283,-1.45042 3.80761,-1.94125 4.10325,-2.00161 6.66809,-1.36144 2.43957,0.60888 5.51012,3.80418 8.44873,8.79197 3.88682,6.59719 4.1785,9.89773 1.04899,11.86998 -4.87221,3.07054 -10.71867,4.30803 -16.08324,3.40428 z m 7.22059,-3.11303 c 4.23166,-0.73671 7.62544,-2.45257 7.79646,-3.94185 0.40533,-3.52951 -5.84328,-13.01765 -9.32948,-14.16627 -1.24608,-0.41055 -1.5025,-0.34 -4.55786,1.25408 -2.70049,1.40895 -3.5701,1.68912 -5.24269,1.68912 -4.18694,0 -6.0769,-1.39899 -9.33674,-6.91125 -4.25058,-7.1876 -6.7316,-11.49796 -7.43198,-12.91184 -0.83918,-1.69412 -0.8706,-4.69594 -0.0736,-7.03115 0.53433,-1.56553 0.89029,-1.93351 3.38868,-3.503 1.5354,-0.96454 3.26212,-2.22097 3.83718,-2.79207 1.63058,-1.61941 1.28295,-3.88087 -1.39495,-9.07481 -2.38144,-4.61896 -4.8231,-7.51493 -6.33602,-7.51493 -1.95263,0 -6.31883,3.65693 -8.73324,7.31457 -0.46473,0.70402 -1.30142,2.51438 -1.85932,4.02301 -0.92886,2.51174 -1.01246,3.15917 -0.99172,7.6803 0.021,4.57945 0.10977,5.1958 1.22449,8.50326 1.90893,5.66392 12.34492,23.66133 16.40335,28.28845 5.19874,5.92719 11.63709,9.27996 18.45314,9.60942 0.52771,0.0255 2.41062,-0.20626 4.18427,-0.51504 z m 17.36054,-41.1468 c 7.25439,-5.64055 13.28747,-10.41331 13.40683,-10.60612 0.13727,-0.22174 -6.29799,-0.35056 -17.51377,-0.35056 -9.75193,0 -20.45132,-0.10711 -23.77639,-0.23804 l -6.04562,-0.23802 -0.22647,1.90892 c -0.12455,1.04991 -0.46614,2.38858 -0.75909,2.97481 l -0.53262,1.06588 9.58535,7.43945 c 10.46888,8.12516 10.67888,8.2719 11.86135,8.28813 0.514,0.007 5.6369,-3.7415 14.00043,-10.24445 z"
       id="path10" />
  </g>
</svg>
